<?xml version="1.0" standalone="no"?>
<!DOCTYPE svg PUBLIC "-//W3C//DTD SVG 20010904//EN"
 "http://www.w3.org/TR/2001/REC-SVG-20010904/DTD/svg10.dtd">
<svg version="1.0" xmlns="http://www.w3.org/2000/svg"
 width="200.000000pt" height="200.000000pt" viewBox="0 0 200.000000 200.000000"
 preserveAspectRatio="xMidYMid meet">

<g transform="translate(0.000000,200.000000) scale(0.100000,-0.100000)"
fill="#000000" stroke="none">
<path d="M1555 1729 c-23 -11 -357 -464 -423 -573 -65 -106 -111 -201 -202
-416 -45 -107 -85 -197 -87 -200 -8 -8 -59 58 -173 225 -133 195 -233 322
-261 330 -25 8 -68 -20 -86 -56 -7 -13 -13 -44 -13 -69 0 -40 5 -49 54 -100
29 -30 140 -170 246 -310 105 -140 203 -265 216 -277 14 -13 38 -23 54 -23 60
0 81 35 240 393 82 186 164 364 182 395 40 72 157 247 287 431 115 164 123
190 70 235 -32 27 -69 32 -104 15z"/>
</g>
</svg>
