<?xml version="1.0" standalone="no"?>
<!DOCTYPE svg PUBLIC "-//W3C//DTD SVG 20010904//EN"
 "http://www.w3.org/TR/2001/REC-SVG-20010904/DTD/svg10.dtd">
<svg version="1.0" xmlns="http://www.w3.org/2000/svg"
 width="200.000000pt" height="200.000000pt" viewBox="0 0 200.000000 200.000000"
 preserveAspectRatio="xMidYMid meet">

<g transform="translate(0.000000,200.000000) scale(0.100000,-0.100000)"
fill="#000000" stroke="none">
<path d="M590 1561 c-66 -13 -102 -46 -252 -226 -190 -228 -203 -250 -203
-335 0 -85 13 -107 203 -335 104 -126 162 -188 193 -205 l44 -25 555 0 c554 0
555 0 596 22 53 28 107 91 122 142 17 53 17 749 0 802 -15 51 -69 114 -122
142 -41 22 -44 22 -571 24 -291 0 -546 -2 -565 -6z m502 -368 l78 -78 78 78
c68 68 82 77 114 77 44 0 78 -36 78 -84 0 -25 -14 -45 -77 -108 l-78 -78 78
-78 c65 -65 77 -83 77 -110 0 -44 -38 -82 -81 -82 -26 0 -46 14 -110 77 l-79
76 -79 -76 c-89 -87 -122 -97 -166 -52 -45 44 -35 77 52 166 l76 79 -76 79
c-63 64 -77 84 -77 110 0 43 38 81 82 81 27 0 45 -12 110 -77z"/>
</g>
</svg>
